<?xml version="1.0" encoding="iso-8859-1"?>
<!-- Generator: Adobe Illustrator 16.0.0, SVG Export Plug-In . SVG Version: 6.00 Build 0)  -->
<!DOCTYPE svg PUBLIC "-//W3C//DTD SVG 1.1//EN" "http://www.w3.org/Graphics/SVG/1.1/DTD/svg11.dtd">
<svg version="1.1" id="Capa_1" xmlns="http://www.w3.org/2000/svg" xmlns:xlink="http://www.w3.org/1999/xlink" x="0px" y="0px"
	 width="364.203px" height="364.204px" viewBox="0 0 364.203 364.204" style="enable-background:new 0 0 364.203 364.204;"
	 xml:space="preserve">
<g>
	<g>
		<path d="M344.105,69.707V15.535h-46.111c1.165,6.362,3.375,14.727,7.608,23.089C313.877,54.999,326.781,65.372,344.105,69.707z"/>
		<path d="M344.105,86.793c-16.7,4.23-29.357,14.063-37.675,29.514c-1.447,2.693-2.66,5.387-3.705,8.038v49.954h-71.055
			c-6.852,10.452-8.778,22.041-9.295,27.673h80.338v113.756H188.962V201.971h20.84c-0.294-5.248-1.753-17.113-8.395-27.673h-12.445
			v-12.715c-7.98-5.161-18.113-7.791-30.276-7.81c-1.348,0-2.534-0.522-3.543-1.261v21.785H41.388V60.543h113.755v82.212
			c0.967-0.708,2.083-1.231,3.369-1.273c1.162-0.036,16.75-0.745,30.45-9.628V60.543h66.146
			c13.307-8.061,25.653-21.755,28.619-45.009H0v344.099h344.099V86.793H344.105z M155.143,315.727H41.388V201.971h113.755V315.727z"
			/>
		<path d="M158.698,147.631c12.757,0.018,22.554,2.774,30.264,6.947c9.364,5.062,15.562,12.262,19.555,19.726
			c5.921,11.07,7.194,22.449,7.44,27.667c0.065,1.424,0.071,2.475,0.065,2.835c0.013-0.36,0.066-1.411,0.198-2.835
			c0.469-5.218,2.21-16.597,8.371-27.667c7.572-13.613,21.81-26.625,48.759-26.667c-0.048,0-0.084,0-0.132,0
			c-56.439,0-57.196-57.328-57.196-57.328c0,26.83-13.276,41.04-27.061,48.639C174.112,147.133,158.698,147.631,158.698,147.631z"/>
		<path d="M344.105,76.057c-38.455-8.812-49.306-42.766-52.344-60.522c-1.129-6.593-1.201-10.965-1.201-10.965
			c0,3.867-0.253,7.491-0.661,10.965c-2.521,21.575-12.411,35.731-24.163,45.009c-21.377,16.886-48.819,17.672-48.819,17.672
			c73.842,0.111,73.728,69.217,73.649,73.442c0.066-2.231,0.961-22.548,12.147-41.247c7.771-12.974,20.524-25.136,41.392-29.97
			c6.01-1.396,12.664-2.213,20.098-2.225c-0.048,0-0.108,0-0.168,0C356.667,78.216,350.067,77.423,344.105,76.057z"/>
	</g>
</g>
<g>
</g>
<g>
</g>
<g>
</g>
<g>
</g>
<g>
</g>
<g>
</g>
<g>
</g>
<g>
</g>
<g>
</g>
<g>
</g>
<g>
</g>
<g>
</g>
<g>
</g>
<g>
</g>
<g>
</g>
</svg>
